{
  "accessors": [
    {
      "bufferView": 0,
      "componentType": 5125,
      "count": 59250,
      "type": "SCALAR"
    },
    {
      "bufferView": 1,
      "componentType": 5126,
      "count": 12377,
      "max": [
        0.03461623048543527,
        0.07718161415910854,
        0.009888747675251691
      ],
      "min": [
        -0.03461623048543527,
        0.00445746795098545,
        -0.009888747675251691
      ],
      "type": "VEC3"
    },
    {
      "bufferView": 2,
      "componentType": 5126,
      "count": 12377,
      "max": [
        0.9999999227956718,
        0.9999994797663248,
        0.9999992340886077
      ],
      "min": [
        -0.9999996927639286,
        -0.9999982280859542,
        -0.9999992340886077
      ],
      "type": "VEC3"
    },
    {
      "bufferView": 3,
      "componentType": 5126,
      "count": 12377,
      "max": [
        1.0,
        0.8284780027362043
      ],
      "min": [
        0.0,
        0.0
      ],
      "type": "VEC2"
    },
    {
      "bufferView": 4,
      "componentType": 5125,
      "count": 59172,
      "type": "SCALAR"
    },
    {
      "bufferView": 5,
      "componentType": 5126,
      "count": 12374,
      "max": [
        0.033080118766432576,
        0.012285250495465944,
        0.00993521552921453
      ],
      "min": [
        -0.030849012804959552,
        -0.07718161415910854,
        -0.009935215529214529
      ],
      "type": "VEC3"
    },
    {
      "bufferView": 6,
      "componentType": 5126,
      "count": 12374,
      "max": [
        0.9999998845096112,
        0.999995492755314,
        0.9999995794494985
      ],
      "min": [
        -0.9999970735214804,
        -0.9999853433793099,
        -0.9999995794494985
      ],
      "type": "VEC3"
    },
    {
      "bufferView": 7,
      "componentType": 5126,
      "count": 12374,
      "max": [
        1.0,
        0.8979633898586623
      ],
      "min": [
        0.0,
        0.0
      ],
      "type": "VEC2"
    }
  ],
  "asset": {
    "generator": "Adobe Illustrator",
    "version": "2.0"
  },
  "bufferViews": [
    {
      "buffer": 0,
      "byteLength": 237000,
      "target": 34963
    },
    {
      "buffer": 0,
      "byteLength": 148524,
      "byteOffset": 237000,
      "target": 34962
    },
    {
      "buffer": 0,
      "byteLength": 148524,
      "byteOffset": 385524,
      "target": 34962
    },
    {
      "buffer": 0,
      "byteLength": 99016,
      "byteOffset": 534048,
      "target": 34962
    },
    {
      "buffer": 0,
      "byteLength": 236688,
      "byteOffset": 633064,
      "target": 34963
    },
    {
      "buffer": 0,
      "byteLength": 148488,
      "byteOffset": 869752,
      "target": 34962
    },
    {
      "buffer": 0,
      "byteLength": 148488,
      "byteOffset": 1018240,
      "target": 34962
    },
    {
      "buffer": 0,
      "byteLength": 98992,
      "byteOffset": 1166728,
      "target": 34962
    }
  ],
  "buffers": [
    {
      "byteLength": 1265720,
      "uri": "data:application/octet-stream;base64,"
    }
  ],
  "materials": [
    {
      "doubleSided": true,
      "pbrMetallicRoughness": {
        "baseColorFactor": [
          0.9999999403953552,
          0.9999999403953552,
          0.9999999403953552,
          1.0
        ],
        "metallicFactor": 0.0,
        "roughnessFactor": 0.4000000059604645
      }
    },
    {
      "doubleSided": true,
      "pbrMetallicRoughness": {
        "baseColorFactor": [
          0.9999999403953552,
          0.9999999403953552,
          0.9999999403953552,
          1.0
        ],
        "metallicFactor": 0.0,
        "roughnessFactor": 0.4000000059604645
      }
    }
  ],
  "meshes": [
    {
      "primitives": [
        {
          "attributes": {
            "NORMAL": 2,
            "POSITION": 1,
            "TEXCOORD_0": 3
          },
          "indices": 0,
          "material": 0,
          "mode": 4
        }
      ]
    },
    {
      "primitives": [
        {
          "attributes": {
            "NORMAL": 6,
            "POSITION": 5,
            "TEXCOORD_0": 7
          },
          "indices": 4,
          "material": 1,
          "mode": 4
        }
      ]
    }
  ],
  "nodes": [
    {
      "mesh": 0
    },
    {
      "mesh": 1
    }
  ],
  "scenes": [
    {
      "nodes": [
        0,
        1
      ]
    }
  ]
}
